<svg xmlns:xlink="http://www.w3.org/1999/xlink" id="wave" style="transform:rotate(0deg); transition: 0.3s" viewBox="0 0 1440 490" version="1.1" xmlns="http://www.w3.org/2000/svg"><defs><linearGradient id="sw-gradient-0" x1="0" x2="0" y1="1" y2="0"><stop stop-color="rgba(240, 248, 255, 1)" offset="0%"/><stop stop-color="rgba(240, 248, 255, 0.52)" offset="100%"/></linearGradient></defs><path style="transform:translate(0, 0px); opacity:1" fill="url(#sw-gradient-0)" d="M0,294L48,318.5C96,343,192,392,288,351.2C384,310,480,180,576,114.3C672,49,768,49,864,49C960,49,1056,49,1152,81.7C1248,114,1344,180,1440,171.5C1536,163,1632,82,1728,89.8C1824,98,1920,196,2016,212.3C2112,229,2208,163,2304,114.3C2400,65,2496,33,2592,81.7C2688,131,2784,261,2880,310.3C2976,359,3072,327,3168,318.5C3264,310,3360,327,3456,326.7C3552,327,3648,310,3744,261.3C3840,212,3936,131,4032,138.8C4128,147,4224,245,4320,253.2C4416,261,4512,180,4608,138.8C4704,98,4800,98,4896,155.2C4992,212,5088,327,5184,310.3C5280,294,5376,147,5472,147C5568,147,5664,294,5760,310.3C5856,327,5952,212,6048,212.3C6144,212,6240,327,6336,318.5C6432,310,6528,180,6624,106.2C6720,33,6816,16,6864,8.2L6912,0L6912,490L6864,490C6816,490,6720,490,6624,490C6528,490,6432,490,6336,490C6240,490,6144,490,6048,490C5952,490,5856,490,5760,490C5664,490,5568,490,5472,490C5376,490,5280,490,5184,490C5088,490,4992,490,4896,490C4800,490,4704,490,4608,490C4512,490,4416,490,4320,490C4224,490,4128,490,4032,490C3936,490,3840,490,3744,490C3648,490,3552,490,3456,490C3360,490,3264,490,3168,490C3072,490,2976,490,2880,490C2784,490,2688,490,2592,490C2496,490,2400,490,2304,490C2208,490,2112,490,2016,490C1920,490,1824,490,1728,490C1632,490,1536,490,1440,490C1344,490,1248,490,1152,490C1056,490,960,490,864,490C768,490,672,490,576,490C480,490,384,490,288,490C192,490,96,490,48,490L0,490Z"/><defs><linearGradient id="sw-gradient-1" x1="0" x2="0" y1="1" y2="0"><stop stop-color="rgba(35, 50, 65, 1)" offset="0%"/><stop stop-color="rgba(35, 50, 65, 0.42)" offset="100%"/></linearGradient></defs><path style="transform:translate(0, 50px); opacity:0.9" fill="url(#sw-gradient-1)" d="M0,245L48,220.5C96,196,192,147,288,106.2C384,65,480,33,576,57.2C672,82,768,163,864,212.3C960,261,1056,278,1152,261.3C1248,245,1344,196,1440,171.5C1536,147,1632,147,1728,130.7C1824,114,1920,82,2016,81.7C2112,82,2208,114,2304,179.7C2400,245,2496,343,2592,351.2C2688,359,2784,278,2880,228.7C2976,180,3072,163,3168,171.5C3264,180,3360,212,3456,261.3C3552,310,3648,376,3744,392C3840,408,3936,376,4032,375.7C4128,376,4224,408,4320,383.8C4416,359,4512,278,4608,204.2C4704,131,4800,65,4896,32.7C4992,0,5088,0,5184,0C5280,0,5376,0,5472,73.5C5568,147,5664,294,5760,294C5856,294,5952,147,6048,138.8C6144,131,6240,261,6336,269.5C6432,278,6528,163,6624,163.3C6720,163,6816,278,6864,334.8L6912,392L6912,490L6864,490C6816,490,6720,490,6624,490C6528,490,6432,490,6336,490C6240,490,6144,490,6048,490C5952,490,5856,490,5760,490C5664,490,5568,490,5472,490C5376,490,5280,490,5184,490C5088,490,4992,490,4896,490C4800,490,4704,490,4608,490C4512,490,4416,490,4320,490C4224,490,4128,490,4032,490C3936,490,3840,490,3744,490C3648,490,3552,490,3456,490C3360,490,3264,490,3168,490C3072,490,2976,490,2880,490C2784,490,2688,490,2592,490C2496,490,2400,490,2304,490C2208,490,2112,490,2016,490C1920,490,1824,490,1728,490C1632,490,1536,490,1440,490C1344,490,1248,490,1152,490C1056,490,960,490,864,490C768,490,672,490,576,490C480,490,384,490,288,490C192,490,96,490,48,490L0,490Z"/></svg>